<?xml version="1.0" encoding="UTF-8"?>
<svg xmlns="http://www.w3.org/2000/svg" version="1.1" width="500" height="500" viewBox="0 0 500 500"><rect x="0" y="0" width="500" height="500" fill="#ffffff"/><g transform="scale(15.152)"><g transform="translate(0,0)"><path fill-rule="evenodd" d="M10 0L10 2L11 2L11 0ZM12 0L12 1L13 1L13 2L12 2L12 4L14 4L14 3L13 3L13 2L16 2L16 3L17 3L17 4L16 4L16 5L15 5L15 6L14 6L14 7L15 7L15 6L16 6L16 8L17 8L17 9L14 9L14 8L13 8L13 9L12 9L12 7L13 7L13 5L11 5L11 6L10 6L10 4L11 4L11 3L8 3L8 4L9 4L9 5L8 5L8 7L9 7L9 8L6 8L6 9L10 9L10 11L11 11L11 9L12 9L12 10L13 10L13 11L12 11L12 13L14 13L14 14L15 14L15 17L14 17L14 16L13 16L13 17L12 17L12 15L13 15L13 14L11 14L11 17L10 17L10 13L11 13L11 12L9 12L9 14L8 14L8 13L7 13L7 12L6 12L6 13L7 13L7 14L5 14L5 15L4 15L4 16L3 16L3 15L2 15L2 14L1 14L1 13L0 13L0 17L1 17L1 16L2 16L2 17L4 17L4 18L5 18L5 17L4 17L4 16L6 16L6 17L7 17L7 18L6 18L6 19L5 19L5 20L6 20L6 21L8 21L8 22L5 22L5 21L4 21L4 19L2 19L2 18L1 18L1 19L0 19L0 20L1 20L1 21L0 21L0 25L1 25L1 22L4 22L4 23L5 23L5 24L3 24L3 23L2 23L2 25L7 25L7 24L8 24L8 27L9 27L9 26L10 26L10 27L11 27L11 26L10 26L10 25L12 25L12 26L13 26L13 27L12 27L12 29L13 29L13 28L14 28L14 29L15 29L15 28L14 28L14 27L16 27L16 26L14 26L14 25L12 25L12 23L14 23L14 22L15 22L15 25L16 25L16 22L15 22L15 21L18 21L18 23L19 23L19 24L20 24L20 25L19 25L19 26L20 26L20 25L21 25L21 24L24 24L24 25L23 25L23 26L22 26L22 27L21 27L21 28L22 28L22 27L23 27L23 28L24 28L24 29L23 29L23 31L25 31L25 30L26 30L26 29L28 29L28 30L29 30L29 28L32 28L32 26L29 26L29 24L31 24L31 25L33 25L33 23L32 23L32 22L33 22L33 21L32 21L32 22L31 22L31 20L32 20L32 18L33 18L33 16L32 16L32 14L33 14L33 13L32 13L32 11L31 11L31 9L32 9L32 10L33 10L33 9L32 9L32 8L31 8L31 9L30 9L30 8L29 8L29 9L30 9L30 12L29 12L29 11L28 11L28 12L27 12L27 13L26 13L26 10L27 10L27 9L28 9L28 8L27 8L27 9L26 9L26 8L25 8L25 6L24 6L24 8L22 8L22 7L23 7L23 5L24 5L24 4L25 4L25 2L22 2L22 0L21 0L21 2L20 2L20 4L19 4L19 3L17 3L17 1L18 1L18 2L19 2L19 1L20 1L20 0L19 0L19 1L18 1L18 0L16 0L16 1L15 1L15 0L14 0L14 1L13 1L13 0ZM23 0L23 1L24 1L24 0ZM8 1L8 2L9 2L9 1ZM21 3L21 4L20 4L20 5L19 5L19 4L17 4L17 5L16 5L16 6L17 6L17 8L19 8L19 9L17 9L17 10L16 10L16 13L15 13L15 10L14 10L14 9L13 9L13 10L14 10L14 11L13 11L13 12L14 12L14 13L15 13L15 14L16 14L16 16L17 16L17 17L15 17L15 18L14 18L14 17L13 17L13 18L12 18L12 17L11 17L11 18L10 18L10 17L9 17L9 18L8 18L8 20L9 20L9 22L8 22L8 23L9 23L9 25L10 25L10 24L11 24L11 23L9 23L9 22L14 22L14 21L15 21L15 18L17 18L17 19L16 19L16 20L18 20L18 21L20 21L20 22L19 22L19 23L22 23L22 22L23 22L23 23L24 23L24 22L25 22L25 24L27 24L27 23L31 23L31 24L32 24L32 23L31 23L31 22L29 22L29 21L28 21L28 22L26 22L26 21L27 21L27 18L28 18L28 20L29 20L29 19L30 19L30 17L31 17L31 18L32 18L32 17L31 17L31 16L30 16L30 15L31 15L31 14L32 14L32 13L31 13L31 12L30 12L30 13L27 13L27 15L25 15L25 14L26 14L26 13L24 13L24 12L25 12L25 11L24 11L24 10L25 10L25 9L24 9L24 10L23 10L23 9L22 9L22 8L21 8L21 9L20 9L20 8L19 8L19 7L20 7L20 5L21 5L21 4L22 4L22 3ZM23 3L23 4L24 4L24 3ZM17 5L17 6L18 6L18 7L19 7L19 6L18 6L18 5ZM9 6L9 7L10 7L10 6ZM11 6L11 7L12 7L12 6ZM21 6L21 7L22 7L22 6ZM0 8L0 9L1 9L1 10L2 10L2 11L0 11L0 12L4 12L4 10L2 10L2 9L5 9L5 8ZM10 8L10 9L11 9L11 8ZM19 9L19 10L18 10L18 11L19 11L19 12L17 12L17 13L18 13L18 16L19 16L19 17L18 17L18 18L20 18L20 17L23 17L23 18L22 18L22 19L20 19L20 21L21 21L21 20L22 20L22 21L23 21L23 22L24 22L24 21L23 21L23 20L22 20L22 19L23 19L23 18L24 18L24 19L25 19L25 20L26 20L26 18L27 18L27 17L28 17L28 15L27 15L27 17L26 17L26 16L25 16L25 15L24 15L24 16L22 16L22 13L21 13L21 12L24 12L24 11L23 11L23 10L22 10L22 9L21 9L21 10L20 10L20 9ZM6 10L6 11L7 11L7 10ZM8 10L8 11L9 11L9 10ZM19 10L19 11L20 11L20 12L19 12L19 13L20 13L20 14L19 14L19 16L21 16L21 13L20 13L20 12L21 12L21 11L20 11L20 10ZM3 13L3 14L4 14L4 13ZM23 13L23 14L24 14L24 13ZM6 15L6 16L7 16L7 17L8 17L8 16L9 16L9 15L8 15L8 16L7 16L7 15ZM24 17L24 18L26 18L26 17ZM9 18L9 19L10 19L10 21L11 21L11 19L10 19L10 18ZM13 18L13 19L12 19L12 21L14 21L14 20L13 20L13 19L14 19L14 18ZM6 19L6 20L7 20L7 19ZM18 19L18 20L19 20L19 19ZM6 23L6 24L7 24L7 23ZM17 24L17 25L18 25L18 24ZM25 25L25 28L28 28L28 25ZM26 26L26 27L27 27L27 26ZM18 27L18 28L16 28L16 29L18 29L18 30L20 30L20 29L18 29L18 28L19 28L19 27ZM8 28L8 33L9 33L9 30L11 30L11 32L10 32L10 33L12 33L12 31L13 31L13 30L11 30L11 28L10 28L10 29L9 29L9 28ZM21 29L21 32L20 32L20 31L19 31L19 32L17 32L17 33L21 33L21 32L22 32L22 29ZM15 30L15 31L14 31L14 32L15 32L15 33L16 33L16 30ZM31 30L31 31L29 31L29 32L31 32L31 33L32 33L32 32L31 32L31 31L32 31L32 30ZM23 32L23 33L28 33L28 32ZM0 0L0 7L7 7L7 0ZM1 1L1 6L6 6L6 1ZM2 2L2 5L5 5L5 2ZM26 0L26 7L33 7L33 0ZM27 1L27 6L32 6L32 1ZM28 2L28 5L31 5L31 2ZM0 26L0 33L7 33L7 26ZM1 27L1 32L6 32L6 27ZM2 28L2 31L5 31L5 28Z" fill="#000000"/></g></g></svg>
